HIERARCHY
ROOT hip
{
  OFFSET 0 0 0
  CHANNELS 6 Xposition Yposition Zposition Zrotation Yrotation Xrotation
  JOINT abdomen
  {
    OFFSET 0 20.6881 -0.73152
    CHANNELS 3 Zrotation Xrotation Yrotation
    JOINT chest
    {
      OFFSET 0 11.7043 -0.48768
      CHANNELS 3 Zrotation Xrotation Yrotation
      JOINT neck
      {
        OFFSET 0 22.1894 -2.19456
        CHANNELS 3 Zrotation Xrotation Yrotation
        JOINT head
        {
          OFFSET -0.24384 7.07133 1.2192
          CHANNELS 3 Zrotation Xrotation Yrotation
          JOINT leftEye
          {
            OFFSET 4.14528 8.04674 8.04672
            CHANNELS 3 Zrotation Xrotation Yrotation
            End Site
            {
              OFFSET 1 0 0
            }
          }
          JOINT rightEye
          {
            OFFSET -3.6576 8.04674 8.04672
            CHANNELS 3 Zrotation Xrotation Yrotation
            End Site
            {
              OFFSET 1 0 0
            }
          }
        }
      }
      JOINT rCollar
      {
        OFFSET -2.68224 19.2634 -4.8768
        CHANNELS 3 Zrotation Xrotation Yrotation
        JOINT rShldr
        {
          OFFSET -8.77824 -1.95073 1.46304
          CHANNELS 3 Zrotation Xrotation Yrotation
          JOINT rForeArm
          {
            OFFSET -28.1742 -1.7115 0.48768
            CHANNELS 3 Zrotation Xrotation Yrotation
            JOINT rHand
            {
              OFFSET -22.5879 0.773209 7.07136
              CHANNELS 3 Zrotation Xrotation Yrotation
              JOINT rThumb1
              {
                OFFSET -1.2192 -0.487915 3.41376
                CHANNELS 3 Zrotation Xrotation Yrotation
                JOINT rThumb2
                {
                  OFFSET -3.37035 -0.52449 3.41376
                  CHANNELS 3 Zrotation Xrotation Yrotation
                  End Site
                  {
                    OFFSET -1.78271 -1.18214 1.43049
                  }
                }
              }
              JOINT rIndex1
              {
                OFFSET -7.75947 0.938293 5.60832
                CHANNELS 3 Zrotation Xrotation Yrotation
                JOINT rIndex2
                {
                  OFFSET -2.54057 -0.884171 1.56538
                  CHANNELS 3 Zrotation Xrotation Yrotation
                  End Site
                  {
                    OFFSET -1.62519 -0.234802 1.16502
                  }
                }
              }
              JOINT rMid1
              {
                OFFSET -8.24714 1.18213 3.41376
                CHANNELS 3 Zrotation Xrotation Yrotation
                JOINT rMid2
                {
                  OFFSET -3.10165 -0.590103 1.0647
                  CHANNELS 3 Zrotation Xrotation Yrotation
                  End Site
                  {
                    OFFSET -2.48547 -0.328903 0.83742
                  }
                }
              }
              JOINT rRing1
              {
                OFFSET -8.82822 0.546677 1.51678
                CHANNELS 3 Zrotation Xrotation Yrotation
                JOINT rRing2
                {
                  OFFSET -2.60934 -0.819778 -0.0198488
                  CHANNELS 3 Zrotation Xrotation Yrotation
                  End Site
                  {
                    OFFSET -2.33842 -0.294052 0.168128
                  }
                }
              }
              JOINT rPinky1
              {
                OFFSET -8.27202 -0.0477905 -0.4584
                CHANNELS 3 Zrotation Xrotation Yrotation
                JOINT rPinky2
                {
                  OFFSET -1.82734 -0.647385 -0.700984
                  CHANNELS 3 Zrotation Xrotation Yrotation
                  End Site
                  {
                    OFFSET -1.69225 -0.51767 -0.607171
                  }
                }
              }
            }
          }
        }
      }
      JOINT lCollar
      {
        OFFSET 2.68224 19.2634 -4.8768
        CHANNELS 3 Zrotation Xrotation Yrotation
        JOINT lShldr
        {
          OFFSET 8.77824 -1.95073 1.46304
          CHANNELS 3 Zrotation Xrotation Yrotation
          JOINT lForeArm
          {
            OFFSET 28.1742 -1.7115 0.48768
            CHANNELS 3 Zrotation Xrotation Yrotation
            JOINT lHand
            {
              OFFSET 22.5879 0.773209 7.07136
              CHANNELS 3 Zrotation Xrotation Yrotation
              JOINT lThumb1
              {
                OFFSET 1.2192 -0.487915 3.41376
                CHANNELS 3 Zrotation Xrotation Yrotation
                JOINT lThumb2
                {
                  OFFSET 3.37035 -0.52449 3.41376
                  CHANNELS 3 Zrotation Xrotation Yrotation
                  End Site
                  {
                    OFFSET 1.78271 -1.18214 1.43049
                  }
                }
              }
              JOINT lIndex1
              {
                OFFSET 7.75947 0.938293 5.60832
                CHANNELS 3 Zrotation Xrotation Yrotation
                JOINT lIndex2
                {
                  OFFSET 2.54057 -0.884171 1.56538
                  CHANNELS 3 Zrotation Xrotation Yrotation
                  End Site
                  {
                    OFFSET 1.62519 -0.234802 1.16502
                  }
                }
              }
              JOINT lMid1
              {
                OFFSET 8.24714 1.18213 3.41376
                CHANNELS 3 Zrotation Xrotation Yrotation
                JOINT lMid2
                {
                  OFFSET 3.10165 -0.590103 1.0647
                  CHANNELS 3 Zrotation Xrotation Yrotation
                  End Site
                  {
                    OFFSET 2.48547 -0.328903 0.83742
                  }
                }
              }
              JOINT lRing1
              {
                OFFSET 8.82822 0.546677 1.51678
                CHANNELS 3 Zrotation Xrotation Yrotation
                JOINT lRing2
                {
                  OFFSET 2.60934 -0.819778 -0.0198488
                  CHANNELS 3 Zrotation Xrotation Yrotation
                  End Site
                  {
                    OFFSET 2.33842 -0.294052 0.168128
                  }
                }
              }
              JOINT lPinky1
              {
                OFFSET 8.27202 -0.0477905 -0.4584
                CHANNELS 3 Zrotation Xrotation Yrotation
                JOINT lPinky2
                {
                  OFFSET 1.82734 -0.647385 -0.700984
                  CHANNELS 3 Zrotation Xrotation Yrotation
                  End Site
                  {
                    OFFSET 1.69225 -0.51767 -0.607171
                  }
                }
              }
            }
          }
        }
      }
    }
  }
  JOINT rButtock
  {
    OFFSET -8.77824 4.35084 1.2192
    CHANNELS 3 Zrotation Xrotation Yrotation
    JOINT rThigh
    {
      OFFSET 0 -1.70687 -2.19456
      CHANNELS 3 Zrotation Xrotation Yrotation
      JOINT rShin
      {
        OFFSET 0 -36.8199 0.73152
        CHANNELS 3 Zrotation Xrotation Yrotation
        JOINT rFoot
        {
          OFFSET 0.73152 -45.1104 -5.12064
          CHANNELS 3 Zrotation Xrotation Yrotation
          End Site
          {
            OFFSET -1.1221 -3.69964 12.103
          }
        }
      }
    }
  }
  JOINT lButtock
  {
    OFFSET 8.77824 4.35084 1.2192
    CHANNELS 3 Zrotation Xrotation Yrotation
    JOINT lThigh
    {
      OFFSET 0 -1.70687 -2.19456
      CHANNELS 3 Zrotation Xrotation Yrotation
      JOINT lShin
      {
        OFFSET 0 -36.8199 0.73152
        CHANNELS 3 Zrotation Xrotation Yrotation
        JOINT lFoot
        {
          OFFSET -0.73152 -45.1104 -5.12064
          CHANNELS 3 Zrotation Xrotation Yrotation
          End Site
          {
            OFFSET 1.1221 -3.69964 12.103
          }
        }
      }
    }
  }
}
MOTION
Frames:	5
Frame Time:	0.03333
0.0 0.0 0.0 0.0 0.0 0.0 0.0 0.0 0.0 0.0 0.0 0.0 0.0 0.0 0.0 0.0 0.0 0.0 0.0 0.0 0.0 0.0 0.0 0.0 0.0 0.0 0.0 0.0 0.0 0.0 0.0 0.0 0.0 0.0 0.0 0.0 0.0 0.0 0.0 0.0 0.0 0.0 0.0 0.0 0.0 0.0 0.0 0.0 0.0 0.0 0.0 0.0 0.0 0.0 0.0 0.0 0.0 0.0 0.0 0.0 0.0 0.0 0.0 0.0 0.0 0.0 0.0 0.0 0.0 0.0 0.0 0.0 0.0 0.0 0.0 0.0 0.0 0.0 0.0 0.0 0.0 0.0 0.0 0.0 0.0 0.0 0.0 0.0 0.0 0.0 0.0 0.0 0.0 0.0 0.0 0.0 0.0 0.0 0.0 0.0 0.0 0.0 0.0 0.0 0.0 0.0 0.0 0.0 0.0 0.0 0.0 0.0 0.0 0.0 0.0 0.0 0.0 0.0 0.0 0.0 0.0 0.0 0.0 0.0 0.0 0.0 0.0 0.0 0.0 0.0 0.0 0.0
-6.5389 57.835800000000006 34.5046 -4.600684 -11.348811 2.490605 -0.072513 16.504371 -177.436225 -0.317515 2.599686 -172.546967 8.79047 25.976961 108.149274 -45.649732 21.58575 -102.908195 0.000718 0.0 0.003386 0.000224 -0.0 -0.00175 -0.033746 -73.796365 -18.970046 -105.541256 -32.656806 -130.416357 -170.603771 -2.86834 -120.696787 -8.956983 -27.761922 -6.890263 -20.162943 17.905493 6.18452 -119.132054 -17.381479 101.642948 -46.83641 39.845605 36.873888 -151.40481 8.817116 109.60946 -159.883152 -4.247951 142.862458 10.227793 -21.034062 -1.147593 -145.110916 -0.564777 -178.95053 10.767247 6.203414 -8.241713 -0.725237 -1.856572 -0.672779 -166.487231 71.711723 -148.500656 2.506135 12.794155 -3.15107 103.507206 -19.31018 -155.524459 -86.825553 -1.008517 85.333211 152.578652 57.461244 -127.926637 -162.921492 -31.69001 -84.387321 -109.016413 -77.978011 -84.498458 6.379002 9.581034 -3.951695 -173.143707 -41.766842 -102.629602 85.188675 61.019482 -76.792506 162.463221 -2.919593 -142.960461 145.12169 0.421136 179.259549 145.81503 -49.185014 168.117583 143.57794 7.2 140.396834 -12.641531 30.108743 -4.61967 -179.685543 75.748976 -0.244043 176.002264 49.279727 -47.914384 -72.393954 34.091773 1.115179 110.618997 22.98354 0.810568 179.910214 75.750666 0.068327 -168.941871 11.364819 -9.519533 -22.022281 56.907428 -144.040311 96.761778 30.423658 -178.099868
-6.815499999999999 57.8222 31.8876 -4.52726 -8.652454 2.630096 0.441012 17.335825 178.315163 -0.76325 2.925803 -168.975744 8.706017 25.397876 104.498619 -46.814763 19.750508 -101.91736 0.002156 -0.0 -0.003255 0.002156 -0.0 -0.003255 -159.212649 -46.913455 170.176959 -46.689738 -30.307651 -46.685004 142.601065 22.242933 -105.468099 -21.79182 14.414021 2.94752 -1.552575 1.526373 0.257803 -30.271947 23.3208 27.620182 -128.790748 17.660263 108.208125 103.419233 -69.602672 52.703327 26.29853 -64.168073 2.981243 -138.308406 44.676045 126.260431 -144.489895 16.31886 175.613019 10.64247 38.259074 -4.388832 -155.310694 49.609617 -149.57577 19.50797 53.493009 6.622202 51.695509 66.045195 -54.472094 -68.577803 -13.406057 -80.257566 -12.572478 -28.521707 -75.2459 11.1736 27.631793 -1.343249 -166.72099 -28.889233 -85.831324 -95.887211 -77.703376 -73.506159 154.696567 -23.375278 -122.038413 -18.962729 -14.919448 10.904818 -74.220321 -80.61947 -45.562104 -13.495878 -31.246171 1.121948 145.121396 1.75989 179.680494 151.493911 -30.529986 174.163379 -22.221212 73.767278 -12.642555 156.309246 38.513484 147.577226 0.003397 -0.001554 0.001903 -2.94826 -29.550206 -80.495609 -77.639832 9.679833 4.393443 3.668869 -33.186531 52.261498 0.003782 0.000109 0.002407 24.280641 -64.771732 2.539159 -43.208383 46.747618 -18.501547 149.146679 0.304603 -95.75
-7.059 57.743500000000004 29.236099999999997 -4.339429 -6.014233 2.934686 1.099435 22.631862 -1.957223 0.900191 -7.990132 10.394793 -6.63527 33.78915 -145.506402 38.471136 47.781093 120.684387 0.001351 0.0 0.001361 0.000644 -0.0 -0.0043 4.144636 -41.299942 -7.95684 -110.915317 -19.562905 -169.348852 -177.479988 3.203253 -121.151899 -10.624153 -20.670294 -5.806944 -176.173357 -13.798916 89.730705 -132.794046 13.57549 66.585132 -144.017074 -3.983596 118.016615 -33.260993 49.715116 19.238375 -15.089566 32.479436 11.015286 -168.235118 -20.46885 144.27447 -0.005262 3.266155 1.025266 -150.009365 39.799009 164.56981 8.27225 26.074006 7.285142 -143.001739 -2.620091 -139.585606 4.837072 21.751653 -5.871852 108.683482 -20.57299 -140.843145 -36.495362 -17.751354 92.332866 179.634407 8.499725 -144.295811 -174.105302 -22.82703 -88.075285 35.043704 -26.914373 3.440953 48.577842 40.348973 -38.418155 98.994412 47.88035 -74.203664 147.98237 24.874505 -134.867501 -170.016364 -61.794736 -134.441889 0.000522 0.069168 -0.021591 -11.218773 -16.529337 2.02709 154.918244 48.083817 149.361389 153.15949 27.273315 144.947583 179.980103 75.750358 0.014894 173.898944 43.936397 -5.038856 -25.641982 74.36317 -35.362906 -138.419275 -29.950281 -19.281775 0.002444 0.000458 0.002756 24.218538 -68.948405 -175.932913 45.944679 -61.539994 -83.502117 64.527353 -36.016783 -32.124934
-7.244599999999999 57.6449 26.544 -3.869956 -3.5798 3.378785 0.763836 22.800012 12.097622 -0.390862 -8.302383 -4.656732 0.308288 15.061518 25.510207 -22.58191 -33.925089 -41.334644 -0.000992 -0.0 0.005157 0.00398 -0.0 -0.001228 2.503735 -18.627722 -3.745585 -108.869698 3.43507 165.510677 4.12544 5.993675 -94.77769 -162.199786 13.515372 138.482537 -171.09851 -8.781388 89.950823 33.342231 -65.347865 27.276769 -143.895776 -3.780402 117.954877 -175.402639 -38.473927 116.467572 -158.50925 -0.155956 142.138029 -9.561246 29.927381 7.959821 -145.085277 -2.254557 -178.419268 -153.15448 -18.831782 -176.488487 -8.463063 -18.043109 -7.989958 19.128833 56.122009 9.470568 158.600985 -31.943948 -167.26626 92.192657 -40.968474 58.991895 158.477452 -43.636151 99.995165 4.101998 8.339252 0.628685 151.456196 10.241524 -86.653936 139.047282 -0.874801 -67.917366 125.953876 20.719819 -106.065493 168.02362 -20.486666 -117.626782 -6.194928 -19.329456 2.627645 17.307698 41.437459 -13.809579 145.073907 5.610325 -179.10473 -11.360536 26.699064 5.927166 101.639987 -46.030121 99.833401 8.800605 -24.365477 11.815984 -0.002434 -0.000489 -0.0001 -7.882814 -36.883671 168.092394 -47.412624 -75.967753 -141.394126 -121.014259 -44.657168 172.209649 0.003576 -0.000302 0.001975 20.693364 -69.985714 145.135571 78.012871 -30.910673 -40.976797 -4.253682 -2.654223 -42.730111
